{"title":"WALT DISNEYS-CHICKEN LITTLE-H.264 BY KIDZCORNER","uid":5059440,"size":839242078,"categoryP":"video","categoryS":"movies","magnet":"?xt=urn:btih:1477ecead27515b59b4b390012a8ebab42782f99&amp;dn=WALT+DISNEYS-CHICKEN+LITTLE-H.264+BY+KIDZCORNER&amp;tr=udp%3A%2F%2Ftracker.openbittorrent.com%3A80&amp;tr=udp%3A%2F%2Fopen.demonii.com%3A1337&amp;tr=udp%3A%2F%2Ftracker.coppersurfer.tk%3A6969&amp;tr=udp%3A%2F%2Fexodus.desync.com%3A6969","seeders":0,"leechers":1,"uploader":"alanwatson","files":-1,"time":1250590992,"description":"The all-animal town of Oakey Oaks's most infamous resident, Chicken Little (voiced by Zach Braff), causes panic when he claims the sky is falling. A year later he's still shunned by everyone, including his dad (Gary Marshall), a single rooster with an incredibly wide tie. Determined to end his losing streak, the bespectacled Little joins the baseball team, even though he can barely lift the bat. Luckily his three equally outcast friends have faith in him: a pig with a yen for '70s disco (Steve Zahn); a Harpo Marx-esque goldfish in a diving helmet; and Abby, a buck-toothed female duckling (Joan Cusak). According to her sources in magazines such as Modern Mallard, Abby is sure Chicken Little merely needs &quot;closure&quot; with dad over the sky incident. But when the sky really does start falling due to a full-on alien invasion, and only Chicken Little knows why, dad still doesn't want to believe him...\n\nFormat : MPEG-4\nFormat profile : Base Media / Version 2\nCodec ID : mp42\nFile size : 798 MiB\nDuration : 1h 17mn\n\nVideo\nID : 1\nFormat : AVC\nFormat/Info : Advanced Video Codec\nFormat profile : &lt;a class=&quot;__cf_email__&quot; href=&quot;/cdn-cgi/l/email-protection&quot; data-cfemail=&quot;6d200c04032d2159435d&quot;&gt;[email&amp;#160;protected]&lt;/a&gt;&lt;script cf-hash='f9e31' type=&quot;text/javascript&quot;&gt;\n/* &lt;![CDATA[ */!function(){try{var t=&quot;currentScript&quot;in document?document.currentScript:function(){for(var t=document.getElementsByTagName(&quot;script&quot;),e=t.length;e--;)if(t[e].getAttribute(&quot;cf-hash&quot;))return t[e]}();if(t&amp;&amp;t.previousSibling){var e,r,n,i,c=t.previousSibling,a=c.getAttribute(&quot;data-cfemail&quot;);if(a){for(e=&quot;&quot;,r=parseInt(a.substr(0,2),16),n=2;a.length-n;n+=2)i=parseInt(a.substr(n,2),16)^r,e+=String.fromCharCode(i);e=document.createTextNode(e),c.parentNode.replaceChild(e,c)}}}catch(u){}}();/* ]]&gt; */&lt;/script&gt;\nFormat settings, CABAC : Yes\nFormat settings, ReFrames : 3 frames\nCodec ID : avc1\nCodec ID/Info : Advanced Video Coding\nDuration : 1h 17mn\nBit rate mode : Variable\nBit rate : 1 277 Kbps\nWidth : 720 pixels\nHeight : 574 pixels\nDisplay aspect ratio : 16/9\nFrame rate mode : Variable\nFrame rate : 25.000 fps\nMinimum frame rate : 12.500 fps\nMaximum frame rate : 86.486 fps\nResolution : 24 bits\nColorimetry : 4:2:0\nScan type : Progressive\nBits/(Pixel*Frame) : 0.124\nStream size : 707 MiB (89%)\nWriting library : x264 core 65\n\nAudio\nID : 2\nFormat : AAC\nFormat/Info : Advanced Audio Codec\nFormat version : Version 4\nFormat profile : LC\nFormat settings, SBR : No\nCodec ID : 40\nDuration : 1h 17mn\nBit rate mode : Variable\nBit rate : 160 Kbps\nMaximum bit rate : 224 Kbps\nChannel(s) : 2 channels\nChannel positions : L R\nSampling rate : 48.0 KHz\nResolution : 16 bits\nStream size : 88.6 MiB (11%)\nLanguage : English","torrent":{"xt":"urn:btih:1477ecead27515b59b4b390012a8ebab42782f99","amp;dn":"WALT+DISNEYS-CHICKEN+LITTLE-H.264+BY+KIDZCORNER","amp;tr":["udp%3A%2F%2Ftracker.openbittorrent.com%3A80","udp%3A%2F%2Fopen.demonii.com%3A1337","udp%3A%2F%2Ftracker.coppersurfer.tk%3A6969","udp%3A%2F%2Fexodus.desync.com%3A6969"],"infoHash":"1477ecead27515b59b4b390012a8ebab42782f99","infoHashBuffer":{"type":"Buffer","data":[20,119,236,234,210,117,21,181,155,75,57,0,18,168,235,171,66,120,47,153]},"announce":[],"urlList":[]}}